<?xml version="1.0" standalone="no"?>
<!DOCTYPE svg PUBLIC "-//W3C//DTD SVG 20010904//EN"
 "http://www.w3.org/TR/2001/REC-SVG-20010904/DTD/svg10.dtd">
<svg version="1.0" xmlns="http://www.w3.org/2000/svg"
 width="530.000000pt" height="189.000000pt" viewBox="0 0 530.000000 189.000000"
 preserveAspectRatio="xMidYMid meet">

<g transform="translate(0.000000,189.000000) scale(0.100000,-0.100000)"
fill="#000000" stroke="none">
<path d="M1003 1208 c157 -297 317 -618 317 -637 0 -15 -10 -26 -32 -36 -31
-13 -22 -14 107 -15 153 0 185 9 185 54 0 25 -354 716 -373 728 -7 4 -67 8
-135 8 l-123 0 54 -102z"/>
<path d="M828 1138 c-108 -228 -284 -582 -313 -628 l-25 -40 123 0 c105 0 126
3 140 18 8 9 78 146 155 303 l139 287 -56 103 c-33 61 -63 105 -74 107 -13 3
-32 -29 -89 -150z"/>
<path d="M4448 1265 c-124 -46 -192 -184 -153 -309 34 -108 126 -176 237 -176
81 0 154 33 120 54 -5 3 -28 -2 -52 -10 -46 -16 -70 -13 -70 9 0 9 15 17 40
21 44 7 102 52 126 97 13 27 13 29 -4 29 -10 0 -26 -14 -36 -31 -23 -40 -96
-73 -140 -65 -48 9 -91 40 -109 79 -32 67 -17 130 43 181 26 21 42 26 87 26
54 0 59 -2 100 -45 45 -47 63 -56 63 -29 0 29 -74 92 -123 106 -28 7 -47 18
-47 26 0 12 11 14 50 9 40 -5 50 -3 50 9 0 33 -111 45 -182 19z"/>
<path d="M4672 1216 c1 -10 8 -17 13 -17 15 1 12 24 -3 29 -9 3 -13 -2 -10
-12z"/>
<path d="M4718 1164 c-4 -3 2 -24 13 -47 24 -54 24 -121 -1 -176 -24 -52 -23
-48 -5 -55 25 -9 58 69 59 139 1 86 -38 168 -66 139z"/>
<path d="M2890 805 l0 -285 50 0 50 0 0 285 0 285 -50 0 -50 0 0 -285z"/>
<path d="M1840 800 l0 -280 55 0 55 0 0 280 0 280 -55 0 -55 0 0 -280z"/>
<path d="M4685 1040 c-7 -12 2 -30 16 -30 12 0 12 27 0 35 -5 3 -12 1 -16 -5z"/>
<path d="M2060 720 l0 -200 50 0 50 0 0 149 0 149 34 16 c42 20 56 20 84 0 21
-14 22 -21 22 -165 l0 -149 56 0 56 0 -4 153 c-3 136 -6 157 -26 189 -12 19
-36 41 -52 48 -40 17 -111 8 -148 -18 l-29 -21 -11 24 c-9 20 -19 25 -47 25
l-35 0 0 -200z"/>
<path d="M2541 897 c-53 -27 -58 -37 -33 -67 l19 -23 57 24 c53 21 60 22 84 8
20 -11 28 -24 30 -51 l3 -36 -53 -7 c-67 -9 -144 -42 -163 -69 -26 -36 -19
-94 14 -127 25 -25 37 -29 84 -29 42 0 63 6 92 25 20 15 38 25 39 23 14 -32
28 -43 55 -46 l31 -3 0 146 c0 165 -10 203 -64 236 -45 27 -138 25 -195 -4z
m159 -246 c0 -35 -4 -41 -35 -56 -23 -10 -47 -14 -64 -10 -53 11 -47 79 7 91
15 3 32 7 37 9 6 2 20 4 33 4 19 1 22 -4 22 -38z"/>
<path d="M3082 768 c4 -170 14 -205 68 -233 44 -23 109 -19 150 9 l35 23 10
-21 c7 -15 22 -22 48 -24 l37 -3 0 200 0 201 -50 0 -50 0 0 -149 0 -149 -34
-16 c-42 -20 -56 -20 -84 0 -21 14 -22 21 -22 165 l0 149 -56 0 -56 0 4 -152z"/>
<path d="M3530 720 l0 -200 50 0 50 0 0 149 c0 166 3 175 66 175 55 0 59 -10
62 -174 l3 -150 50 0 49 0 0 139 c0 77 3 147 6 156 9 21 49 37 78 29 37 -9 46
-45 46 -189 l0 -135 50 0 50 0 -1 143 c0 82 -5 157 -12 177 -17 47 -68 80
-126 80 -48 0 -107 -28 -117 -54 -4 -11 -14 -5 -37 21 -29 33 -34 35 -79 31
-28 -3 -57 -13 -69 -24 -21 -19 -22 -19 -36 4 -11 15 -25 22 -49 22 l-34 0 0
-200z"/>
<path d="M4677 864 c-9 -10 2 -24 19 -24 8 0 14 7 14 15 0 15 -21 21 -33 9z"/>
</g>
</svg>
